<?xml version="1.0" encoding="UTF-8" standalone="no"?>
<svg
   xmlns:dc="http://purl.org/dc/elements/1.1/"
   xmlns:cc="http://creativecommons.org/ns#"
   xmlns:rdf="http://www.w3.org/1999/02/22-rdf-syntax-ns#"
   xmlns:svg="http://www.w3.org/2000/svg"
   xmlns="http://www.w3.org/2000/svg"
   xml:space="preserve"
   style="enable-background:new 0 0 223.84 49.15;"
   viewBox="0 0 223.84 49.15"
   y="0px"
   x="0px"
   id="Layer_1"
   version="1.1"><metadata
   id="metadata3805"><rdf:RDF><cc:Work
       rdf:about=""><dc:format>image/svg+xml</dc:format><dc:type
         rdf:resource="http://purl.org/dc/dcmitype/StillImage" /><dc:title></dc:title></cc:Work></rdf:RDF></metadata><defs
   id="defs3803" />
<style
   id="style3779"
   type="text/css">
	.st0{fill:#41C363;}
</style>
<g
   id="g3798">
	<g
   id="g3796">
		<g
   id="g3790">
			<polygon
   points="32.49,40.7 17.63,40.7 16.05,45.56 34.07,45.56    "
   class="st0"
   id="XMLID_47_" />
			<polygon
   points="26.32,4.14 33.45,4.14 46.12,43.13 38.99,43.13    "
   id="XMLID_46_" />
			<polygon
   points="23.8,4.14 16.67,4.14 4,43.13 11.13,43.13    "
   id="XMLID_45_" />
			<g
   id="g3788">
				<polygon
   points="210.75,4.14 183.2,4.14 183.2,9.86 193.76,9.86 193.76,43.13 200.2,43.13 200.2,9.86       210.75,9.86     "
   id="XMLID_44_" />
				<polygon
   points="144.65,4.14 144.65,43.13 169.69,43.13 169.69,37.41 151.09,37.41 151.09,26.32 167.03,26.32       167.03,20.59 151.09,20.59 151.09,9.86 169.69,9.86 169.69,4.14     "
   id="XMLID_43_" />
				<polygon
   points="77.78,4.14 68.66,33.28 59.55,4.15 59.54,4.14 52.42,4.14 65.09,43.13 72.24,43.13 84.91,4.14           "
   id="XMLID_42_" />
				<polygon
   points="103.77,4.14 98.28,4.14 98.28,43.13 104.72,43.13 104.72,17.06 122.31,43.13 127.8,43.13       127.8,4.14 121.36,4.14 121.36,30.21     "
   id="XMLID_41_" />
			</g>
		</g>
		<g
   id="XMLID_33_">
			<g
   id="XMLID_34_">
				<g
   id="XMLID_35_">
					<path
   d="M217.14,9.85c-1.58,0-2.86-1.28-2.86-2.86s1.28-2.86,2.86-2.86c1.58,0,2.86,1.28,2.86,2.86       S218.72,9.85,217.14,9.85z M217.14,4.66c-1.28,0-2.29,1.03-2.29,2.33s1.01,2.33,2.29,2.33s2.28-1.03,2.28-2.33       S218.42,4.66,217.14,4.66z M217.74,8.54l-0.63-1.22h-0.4v1.22h-0.57V5.45h1.16c0.58,0,1,0.43,1,0.95       c0,0.43-0.27,0.72-0.61,0.84l0.69,1.3H217.74z M217.24,5.93h-0.52v0.93h0.52c0.3,0,0.51-0.21,0.51-0.47       C217.74,6.13,217.54,5.93,217.24,5.93z"
   id="XMLID_36_" />
				</g>
			</g>
		</g>
	</g>
</g>
<path
   id="path3807"
   d="M 4.6899943,41.223827 C 5.0075132,40.228655 7.8345272,31.518247 10.972248,21.867365 L 16.677194,4.320307 20.174646,4.285301 c 1.923598,-0.019253 3.493006,0.01032 3.487572,0.065719 -0.0054,0.055399 -2.830084,8.765818 -6.277001,19.356486 l -6.26712,19.25576 -3.5027049,0.03498 -3.502705,0.03498 z"
   style="stroke-width:0.13143864;fill:#ffffff" /><path
   id="path3809"
   d="M 39.008942,42.930406 C 38.977598,42.876188 36.159187,34.231385 32.745807,23.719732 29.332427,13.208079 26.508804,4.5272216 26.471089,4.428937 26.414132,4.280509 26.998976,4.2561726 29.923592,4.2852725 l 3.521076,0.035035 6.217247,19.1243205 c 3.419486,10.518377 6.252171,19.22783 6.294856,19.35434 0.07262,0.215232 -0.146366,0.230017 -3.406615,0.230017 -1.916322,0 -3.509869,-0.04436 -3.541214,-0.09858 z"
   style="fill:#ffffff;stroke-width:0.13143864" /><path
   id="path3811"
   d="M 58.856671,23.741041 C 55.409231,13.130397 52.588598,4.4052267 52.588598,4.3517742 c 0,-0.053453 1.557482,-0.097187 3.461071,-0.097187 h 3.461071 l 0.135136,0.4271756 c 0.07432,0.2349465 2.102801,6.7263712 4.507725,14.4253902 2.404925,7.699018 4.41989,14.050098 4.477702,14.113512 0.05781,0.06341 0.16886,-0.114027 0.246774,-0.394316 0.07792,-0.280287 2.114893,-6.80881 4.526616,-14.507828 l 4.38495,-13.9982145 3.50071,-0.035006 c 1.925391,-0.019253 3.500109,-0.019253 3.499371,0 -7.36e-4,0.019254 -2.827464,8.7296725 -6.281618,19.3564855 l -6.280278,19.32148 -3.551542,0.03493 -3.551542,0.03493 z"
   style="fill:#ffffff;stroke-width:0.13143864" /><path
   id="path3813"
   d="M 98.329243,23.641786 V 4.2545877 l 2.727347,0.0031 2.72736,0.0031 8.73248,12.9510993 c 4.80286,7.123104 8.78052,12.980792 8.83925,13.017084 0.0587,0.03629 0.10676,-5.793096 0.10676,-12.954196 V 4.2545877 h 3.15453 3.15453 V 23.641786 43.028985 l -2.72735,-7.88e-4 -2.72736,-7.89e-4 -8.74067,-12.958456 c -4.80736,-7.127155 -8.78502,-12.985883 -8.83924,-13.019397 -0.0542,-0.03351 -0.0986,5.798148 -0.0986,12.959248 v 13.020182 h -3.15453 -3.154527 z"
   style="fill:#ffffff;stroke-width:0.13143864" /><path
   id="path3815"
   d="M 144.72708,23.641786 V 4.2545877 h 12.42095 12.42095 v 2.7602114 2.7602113 h -9.26642 -9.26642 v 5.4547036 5.454703 h 7.95203 7.95204 v 2.760211 2.760212 h -7.95204 -7.95203 v 5.651861 5.651862 h 9.26642 9.26642 v 2.760211 2.760211 h -12.42095 -12.42095 z"
   style="fill:#ffffff;stroke-width:0.13143864" /><path
   id="path3817"
   d="m 193.85278,26.434857 -0.0334,-16.5941273 -5.2904,-0.034351 -5.29041,-0.034351 V 7.013308 4.2545877 h 13.73534 13.73534 v 2.7602114 2.7602113 h -5.25755 -5.25754 V 26.401998 43.028985 h -3.15403 -3.15402 z"
   style="fill:#ffffff;stroke-width:0.13143864" /><path
   id="path3819"
   d=""
   style="fill:#ffffff;stroke-width:0.13143864" /><path
   id="path3821"
   d="m 216.09826,9.5654571 c -0.60222,-0.2608531 -1.14341,-0.7839607 -1.47177,-1.4225983 -0.39478,-0.7678171 -0.29244,-1.9848442 0.22916,-2.7253879 1.45682,-2.068314 4.81966,-1.230703 5.02553,1.2517511 0.0726,0.8751545 -0.13507,1.5380504 -0.67404,2.1519054 -0.77067,0.8777445 -2.07816,1.1907846 -3.10888,0.7443297 z m 2.06147,-0.4402081 c 0.6221,-0.282445 1.16117,-1.0034138 1.29208,-1.728065 0.17106,-0.9469548 -0.40374,-2.11323 -1.25966,-2.5558433 -0.47698,-0.2466549 -1.60569,-0.2477361 -2.08091,-0.00199 -1.75129,0.9056316 -1.72577,3.4890287 0.0424,4.292096 0.68412,0.3107106 1.31234,0.3087708 2.00608,-0.00619 z"
   style="fill:#ffffff;stroke-width:0.13143864" /><path
   id="path3823"
   d=""
   style="fill:#ffffff;stroke-width:0.13143864" /><path
   id="path3825"
   d="m 216.75545,6.3576059 c 0,-0.3275626 0.0529,-0.3943159 0.31251,-0.3943159 0.17187,0 0.38551,0.087968 0.47474,0.1954841 0.25083,0.3022342 0.0601,0.5931477 -0.38881,0.5931477 -0.35508,0 -0.39844,-0.042906 -0.39844,-0.3943159 z"
   style="fill:#ffffff;stroke-width:0.13143864" /><path
   id="path3827"
   d="M 216.14929,6.9991964 V 5.4630073 h 0.65342 c 0.61038,0 0.6615,0.00224 0.77619,0.034023 0.18041,0.049993 0.30506,0.1223766 0.43568,0.2529995 0.18766,0.1876654 0.27059,0.3876356 0.27059,0.6525048 0,0.2570919 -0.0707,0.4299626 -0.24813,0.6070708 -0.075,0.074795 -0.14821,0.1282593 -0.2335,0.1704136 l -0.12429,0.061426 0.0464,0.084249 c 0.0255,0.046337 0.14802,0.2764777 0.27219,0.5114243 0.12418,0.2349465 0.2587,0.4881713 0.29894,0.5627216 l 0.0732,0.1355461 h -0.3119 -0.3119 l -0.31145,-0.6037962 -0.31144,-0.6037962 -0.20769,-0.0046 -0.20769,-0.0046 V 7.926988 8.5353826 h -0.27931 -0.27931 z m 1.30431,-0.1732281 c 0.18521,-0.069295 0.29746,-0.2340746 0.29612,-0.4346756 -0.001,-0.188868 -0.10138,-0.3410187 -0.27783,-0.4222265 -0.0759,-0.034911 -0.10827,-0.038215 -0.42306,-0.043106 l -0.34092,-0.0053 v 0.4694397 0.4694397 h 0.32798 c 0.29008,0 0.33835,-0.00388 0.41771,-0.033574 z"
   style="fill:#ffffff;stroke-width:0.01642983" /><path
   id="path3829"
   d="m 216.92876,9.8309089 c -0.84001,-0.055887 -1.62023,-0.4990293 -2.12429,-1.2065357 -0.11659,-0.1636477 -0.30515,-0.5375041 -0.37221,-0.737966 -0.0875,-0.2616275 -0.1251,-0.4863718 -0.13465,-0.8050617 -0.007,-0.2278517 -0.003,-0.3383679 0.0185,-0.4814558 0.15942,-1.0833802 0.87755,-1.9522355 1.90816,-2.3086827 0.70467,-0.2437193 1.50452,-0.1906128 2.17872,0.1446586 0.31435,0.1563229 0.55226,0.3329446 0.80534,0.5978688 0.73103,0.7652547 0.97344,1.880627 0.6268,2.8840237 -0.31421,0.9095047 -1.08183,1.6114769 -2.01154,1.8394896 -0.29527,0.072417 -0.5716,0.095164 -0.8948,0.073661 z m 0.72212,-0.1119064 c 0.605,-0.1308974 1.1131,-0.4139502 1.51294,-0.8428324 0.19677,-0.2110702 0.33585,-0.4111546 0.45956,-0.6611664 0.11683,-0.2361086 0.17276,-0.3933468 0.22432,-0.6306475 0.0494,-0.2275063 0.0623,-0.788838 0.0242,-1.05341 -0.0594,-0.411856 -0.17557,-0.7307485 -0.38316,-1.0515091 -0.38779,-0.5992206 -1.01597,-1.0158341 -1.77761,-1.1789252 -0.19083,-0.040861 -0.23536,-0.044179 -0.59244,-0.044135 -0.43213,5.25e-5 -0.56517,0.019524 -0.90328,0.1322065 -0.69318,0.2310123 -1.30824,0.7813672 -1.58634,1.4194503 -0.32532,0.7464156 -0.3319,1.6869801 -0.0162,2.3182915 0.16197,0.3239227 0.33472,0.5581051 0.62308,0.8446472 0.25206,0.2504626 0.4519,0.3976393 0.72447,0.5335475 0.23214,0.1157487 0.4436,0.1873604 0.68184,0.2309031 0.24123,0.044091 0.7687,0.035505 1.00869,-0.016421 z"
   style="fill:#ffffff;stroke-width:0.01642983" /><path
   id="path3831"
   d=""
   style="fill:#ffffff;stroke-width:0.01642983" /><path
   id="path3833"
   d="m 215.50927,8.6709315 c -0.2062,-0.2059888 -0.31809,-0.3581402 -0.43427,-0.5905344 -0.1765,-0.3530307 -0.24745,-0.663462 -0.24713,-1.0812007 2.5e-4,-0.3282279 0.0268,-0.4989768 0.12138,-0.7822617 0.12262,-0.3670236 0.30328,-0.6621459 0.5665,-0.9254052 0.31383,-0.3138853 0.66969,-0.5202555 0.96672,-0.560623 0.0522,-0.0071 0.0348,0.00264 -0.0703,0.039401 -0.57519,0.2010998 -1.03915,0.5998694 -1.3046,1.1212851 -0.17578,0.3452708 -0.25849,0.6936566 -0.25865,1.08941 -2.8e-4,0.6929309 0.24811,1.27508 0.7427,1.7406678 0.0831,0.078272 0.14211,0.1423119 0.13104,0.1423119 -0.0111,0 -0.10711,-0.086873 -0.21339,-0.1930508 z"
   style="fill:#ffffff;stroke-width:0.01642983" /><path
   id="path3835"
   d=""
   style="fill:#ffffff;stroke-width:0.01642983" /><path
   id="path3837"
   d="m 216.85578,9.8178412 c -0.78748,-0.084948 -1.50877,-0.4933472 -1.98933,-1.1263724 -0.15872,-0.2090781 -0.37474,-0.6326319 -0.4483,-0.8789959 -0.0863,-0.2891523 -0.10053,-0.4061886 -0.10066,-0.8297064 -1.4e-4,-0.4374834 0.0111,-0.518769 0.11825,-0.8543511 0.37548,-1.1761481 1.47069,-1.9791529 2.69934,-1.9791529 1.22989,0 2.32014,0.7916255 2.70312,1.9627231 0.10979,0.3357182 0.13116,0.4826482 0.13023,0.8954257 -6.8e-4,0.3033778 -0.006,0.377497 -0.038,0.5250724 -0.11815,0.5460286 -0.35311,1.0022771 -0.71735,1.3929759 -0.43096,0.462264 -0.97002,0.7538956 -1.60396,0.8677482 -0.16433,0.029513 -0.58165,0.043158 -0.75337,0.024633 z m 0.0657,-0.067137 c -0.79725,-0.05068 -1.53185,-0.4902267 -2.05373,-1.2288573 -0.43649,-0.6177571 -0.57117,-1.3136696 -0.40904,-2.113442 0.24437,-1.2054197 1.22403,-2.0558428 2.47098,-2.1450049 l 0.19716,-0.014098 -0.22232,0.00628 c -0.25809,0.00729 -0.41031,0.034979 -0.67474,0.1227413 -0.66562,0.2209187 -1.25378,0.7180986 -1.55009,1.310325 -0.20798,0.4156749 -0.29589,0.8151028 -0.29568,1.3434092 2.1e-4,0.4985307 0.071,0.8112695 0.26681,1.1791022 0.15275,0.2869013 0.28288,0.4567903 0.56971,0.7437815 0.28738,0.287535 0.45091,0.410888 0.72983,0.550525 0.36507,0.18276 0.65822,0.2586258 0.99575,0.2577005 l 0.1643,-4.502e-4 -0.18894,-0.012011 z m 0.75535,-0.03141 c 0.85145,-0.1858313 1.5683,-0.7344785 1.94469,-1.4883836 0.19469,-0.3899639 0.27731,-0.722668 0.27119,-1.0920605 -0.002,-0.131063 -0.003,-0.1270205 -0.0149,0.065719 -0.037,0.6030024 -0.26087,1.1346848 -0.67785,1.6101233 -0.46344,0.5284254 -1.17136,0.8791571 -1.89,0.9363956 l -0.18308,0.014582 0.20128,-0.0071 c 0.11083,-0.00391 0.26753,-0.021559 0.3487,-0.039275 z m -0.10004,-0.3948938 c 0.21402,-0.043615 0.46588,-0.1321928 0.65907,-0.2317938 0.55535,-0.2863143 1.01781,-0.8896152 1.19234,-1.555466 0.0618,-0.2356347 0.0728,-0.5960322 0.0264,-0.8665406 -0.0936,-0.5469716 -0.35167,-1.0478976 -0.7414,-1.439392 -0.35218,-0.3537753 -0.60712,-0.4834552 -1.08094,-0.5498552 -0.23295,-0.032644 -0.68379,-0.036429 -0.91621,-0.00769 -0.22119,0.02735 -0.45109,0.087497 -0.5942,0.1554604 -0.28928,0.1373769 -0.62641,0.4187598 -0.83547,0.6973239 -0.2038,0.2715422 -0.36595,0.6451772 -0.43787,1.0089739 -0.0473,0.2394817 -0.0511,0.6655919 -0.008,0.8909528 0.13785,0.7182558 0.52034,1.2692701 1.12141,1.615512 0.24817,0.1429579 0.63716,0.2736279 0.93472,0.3139965 0.16438,0.022301 0.49003,0.00722 0.67996,-0.03148 z m 2.30132,-2.7849775 c -0.1307,-0.9828878 -0.76251,-1.7571064 -1.72829,-2.1178427 -0.28377,-0.105995 -0.53349,-0.1588031 -0.78472,-0.1659478 l -0.2218,-0.00631 0.17251,0.013946 c 0.71349,0.057678 1.32968,0.328903 1.80467,0.794353 0.4658,0.4564471 0.72259,1.0352894 0.75563,1.7033404 0.0108,0.21761 0.0111,0.2190075 0.0163,0.073934 0.003,-0.081328 -0.003,-0.2142917 -0.0143,-0.2954754 z"
   style="fill:#ffffff;stroke-width:0.01642983" /><path
   id="path3839"
   d="m 216.8326,9.8152706 c -0.78339,-0.08258 -1.50855,-0.506507 -1.99985,-1.1691118 -0.11696,-0.1577492 -0.34202,-0.6038201 -0.40702,-0.8067342 -0.0926,-0.2891502 -0.10763,-0.4070522 -0.10801,-0.8484432 -3.2e-4,-0.3631214 0.003,-0.4193799 0.0382,-0.5746296 0.19688,-0.8796298 0.73709,-1.578299 1.52232,-1.9688333 0.80689,-0.4013053 1.73762,-0.3976205 2.54852,0.01009 0.39666,0.1994401 0.81889,0.5730194 1.06205,0.9396799 0.2201,0.3318934 0.36753,0.6837881 0.44359,1.0587896 0.0314,0.1548129 0.0369,0.2338713 0.0369,0.5349038 0,0.302235 -0.005,0.3798051 -0.0373,0.5372068 -0.0777,0.3833582 -0.25263,0.789062 -0.47669,1.1055442 -0.1232,0.1740243 -0.43189,0.4946166 -0.59491,0.61785 -0.57633,0.4356763 -1.30926,0.6394236 -2.02772,0.5636882 z m 0.0341,-0.065099 c -0.79916,-0.070877 -1.52558,-0.5289668 -2.03821,-1.2853286 -0.25131,-0.3707887 -0.38197,-0.7318955 -0.42627,-1.1781249 -0.005,-0.049376 -0.006,-0.047053 -0.008,0.01643 -0.003,0.096142 0.037,0.3244714 0.0893,0.5054105 0.0524,0.1812259 0.18813,0.4614319 0.3163,0.6528925 0.18748,0.2800491 0.54686,0.6498927 0.82426,0.8482517 0.3792,0.2711482 0.89657,0.4542928 1.28125,0.4535455 0.0996,-1.939e-4 0.097,-0.00107 -0.0383,-0.013077 z m 0.4696,0.00586 c -0.0203,-0.00392 -0.0536,-0.00392 -0.0739,0 -0.0203,0.00392 -0.004,0.00712 0.037,0.00712 0.0407,0 0.0573,-0.0032 0.037,-0.00712 z m 0.30212,-0.030472 c 0.59245,-0.1223729 1.08816,-0.3942144 1.50107,-0.8231603 0.21042,-0.2185903 0.34468,-0.4056149 0.47574,-0.6626783 0.1724,-0.3381521 0.25679,-0.64104 0.2704,-0.9705545 l 0.008,-0.1878168 -0.0152,0.1686008 c -0.053,0.5861565 -0.24951,1.051701 -0.64321,1.523372 -0.42723,0.5118488 -1.10595,0.8771269 -1.79597,0.9665624 -0.043,0.00557 -0.0413,0.0067 0.013,0.00885 0.0343,0.00135 0.11816,-0.00908 0.18642,-0.023176 z m -0.28743,-0.3694083 c 0.32108,-0.032382 0.69336,-0.1510531 0.96314,-0.3070259 0.47122,-0.2724324 0.88913,-0.8070812 1.06936,-1.3680869 0.0808,-0.2513624 0.0923,-0.3315642 0.0926,-0.6407634 2.3e-4,-0.3160759 -0.0264,-0.4804714 -0.12625,-0.7800025 -0.17498,-0.5247933 -0.55322,-1.0350804 -0.97552,-1.3160679 -0.30775,-0.2047715 -0.56473,-0.2686019 -1.13246,-0.2812905 -0.29753,-0.00665 -0.41899,-0.00271 -0.57118,0.018542 -0.22658,0.031636 -0.43564,0.089046 -0.56851,0.1561203 -0.40594,0.204917 -0.81786,0.6176605 -1.02403,1.0260734 -0.20716,0.4103931 -0.30198,0.8981979 -0.26125,1.3440653 0.0881,0.9647006 0.66526,1.707278 1.57211,2.0227863 0.35509,0.1235386 0.62866,0.1592699 0.96202,0.1256499 z M 214.4395,6.5128257 c 0.0935,-0.5504221 0.29637,-0.9789974 0.649,-1.3710044 0.40781,-0.4533386 0.97482,-0.755312 1.60175,-0.8530497 0.12012,-0.018727 0.12925,-0.022189 0.0621,-0.023546 -0.1044,-0.00211 -0.2907,0.037474 -0.50172,0.1065988 -0.67929,0.2225173 -1.27056,0.7215845 -1.57668,1.3308067 -0.18922,0.3765805 -0.30354,0.9010609 -0.29665,1.3610352 0.002,0.150081 0.004,0.1414639 0.0153,-0.092209 0.007,-0.1417684 0.0282,-0.3481527 0.0469,-0.4586316 z m 5.45133,0.1947454 c -0.0405,-0.8044644 -0.47234,-1.5423362 -1.17032,-1.9996451 -0.38116,-0.2497317 -0.90634,-0.4297463 -1.31438,-0.4505307 l -0.1643,-0.00837 0.13965,0.015258 c 0.38505,0.042069 0.73493,0.1446975 1.06735,0.3130743 0.8398,0.4253831 1.37256,1.2236884 1.42469,2.1348216 0.006,0.099124 0.014,0.1802261 0.0185,0.1802261 0.004,0 0.004,-0.083176 -0.001,-0.1848356 z m -2.93219,-2.4555026 c -0.0202,-0.0039 -0.0572,-0.004 -0.0821,-2.243e-4 -0.025,0.00378 -0.008,0.00697 0.0367,0.00709 0.0452,1.234e-4 0.0656,-0.00297 0.0454,-0.00687 z"
   style="fill:#ffffff;stroke-width:0.01642983" /></svg>